<?xml version="1.0" standalone="no"?>
<!DOCTYPE svg PUBLIC "-//W3C//DTD SVG 20010904//EN"
 "http://www.w3.org/TR/2001/REC-SVG-20010904/DTD/svg10.dtd">
<svg version="1.0" xmlns="http://www.w3.org/2000/svg"
 width="1705.000000pt" height="1705.000000pt" viewBox="0 0 1705.000000 1705.000000"
 preserveAspectRatio="xMidYMid meet">
<metadata>
Created by potrace 1.11, written by Peter Selinger 2001-2013
</metadata>
<g transform="translate(0.000000,1705.000000) scale(0.100000,-0.100000)"
fill="#000000" stroke="none">
<path d="M8387 16394 c-1 -1 -69 -5 -152 -8 -82 -4 -166 -9 -185 -11 -105 -11
-151 -15 -205 -20 -107 -9 -261 -28 -410 -51 -16 -3 -39 -6 -50 -8 -11 -2 -33
-6 -50 -9 -16 -3 -48 -9 -70 -12 -22 -3 -47 -7 -55 -10 -8 -2 -31 -6 -50 -9
-44 -7 -224 -44 -242 -51 -7 -2 -24 -6 -38 -9 -39 -6 -303 -74 -420 -107 -262
-75 -739 -247 -969 -350 -242 -109 -499 -238 -678 -340 -60 -34 -128 -73 -153
-87 -307 -172 -821 -540 -1115 -796 -121 -106 -146 -128 -275 -247 -179 -167
-348 -342 -530 -548 -36 -41 -70 -79 -75 -85 -42 -45 -241 -297 -329 -416
-216 -291 -394 -568 -588 -915 -113 -202 -314 -633 -412 -880 -177 -452 -345
-1034 -411 -1425 -4 -19 -17 -98 -30 -175 -31 -180 -58 -391 -70 -550 -4 -38
-8 -86 -10 -105 -27 -251 -27 -1029 0 -1260 2 -19 7 -66 10 -105 12 -144 43
-391 70 -550 98 -585 259 -1155 477 -1685 136 -331 329 -724 460 -938 21 -34
38 -64 38 -66 0 -9 137 -227 239 -381 174 -263 476 -653 671 -869 293 -325
630 -646 925 -881 55 -44 107 -85 115 -92 197 -158 672 -479 880 -595 25 -14
63 -35 85 -48 584 -333 1249 -600 1915 -770 63 -16 126 -31 140 -34 14 -3 86
-18 160 -35 74 -17 203 -42 285 -56 194 -33 191 -33 255 -40 30 -3 82 -10 115
-15 33 -5 89 -12 125 -15 36 -4 72 -8 80 -10 8 -2 60 -6 115 -10 55 -4 116 -8
135 -10 66 -6 415 -18 535 -18 114 0 459 12 535 18 19 1 74 6 122 9 47 4 97 9
110 11 12 2 59 6 102 10 43 4 88 9 100 11 12 2 46 7 76 10 30 3 62 7 70 9 8 2
35 7 60 10 39 5 105 16 182 29 13 2 64 12 113 21 50 10 100 19 111 21 12 2 82
18 155 35 74 17 143 32 154 34 157 32 776 226 910 285 11 5 76 31 145 58 69
28 157 64 195 81 39 18 97 44 130 59 226 101 584 292 825 440 176 109 393 253
398 264 2 4 8 8 13 8 10 0 17 5 257 187 131 100 406 323 422 343 3 3 50 47
105 96 101 90 374 360 475 469 359 390 705 851 971 1295 73 121 102 171 189
330 42 77 190 375 230 465 12 28 31 70 43 95 118 262 328 849 362 1014 3 10 9
34 15 52 11 33 45 163 56 214 3 14 11 50 19 80 8 30 16 66 19 80 2 14 11 57
20 95 19 92 21 103 51 280 14 83 28 161 30 174 2 13 7 45 11 70 3 25 7 56 9
69 2 13 7 53 11 90 3 37 8 75 10 85 1 9 6 56 9 105 4 48 8 98 10 111 27 161
27 961 0 1271 -9 103 -16 182 -20 217 -20 164 -37 290 -40 303 -2 8 -7 40 -10
70 -4 30 -8 57 -10 60 -2 3 -6 25 -9 50 -9 67 -62 328 -95 470 -54 232 -131
501 -211 735 -58 169 -160 433 -206 533 -13 29 -24 55 -24 57 0 20 -240 509
-320 650 -40 72 -84 150 -98 175 -34 62 -211 342 -261 415 -23 33 -54 78 -68
100 -65 99 -374 505 -428 561 -5 6 -29 33 -52 60 -141 167 -220 252 -423 454
-113 113 -238 235 -279 270 -40 36 -83 74 -95 85 -12 11 -50 45 -86 75 -36 30
-67 57 -70 60 -3 4 -39 33 -80 65 -41 33 -77 62 -80 65 -3 3 -50 39 -105 80
-55 41 -102 77 -105 80 -3 3 -21 17 -40 30 -19 13 -37 27 -40 30 -3 3 -13 10
-22 15 -9 6 -90 60 -180 120 -90 61 -172 115 -183 122 -216 132 -263 160 -340
203 -33 18 -89 49 -125 70 -116 65 -433 218 -615 297 -275 119 -708 273 -998
353 -43 12 -86 23 -95 25 -9 2 -53 13 -96 25 -44 11 -89 22 -100 24 -12 2 -59
13 -106 25 -47 11 -110 24 -140 30 -30 5 -89 16 -130 24 -41 9 -91 18 -110 21
-19 3 -78 12 -130 20 -52 9 -115 18 -140 21 -25 3 -79 10 -120 15 -100 12
-205 23 -360 35 -178 14 -831 29 -843 19z m618 -38 c88 -4 180 -9 205 -11 63
-6 176 -16 235 -21 28 -2 104 -11 170 -19 66 -9 136 -18 155 -21 19 -2 60 -8
90 -14 30 -5 71 -11 90 -14 52 -8 82 -14 220 -41 69 -14 135 -27 148 -30 12
-2 80 -18 150 -35 70 -17 134 -33 142 -35 13 -3 110 -29 205 -55 206 -57 494
-157 770 -268 693 -278 1369 -677 1970 -1161 72 -57 141 -114 155 -127 14 -12
68 -59 120 -105 337 -297 711 -693 974 -1034 42 -55 83 -107 89 -115 7 -9 27
-36 45 -60 18 -25 48 -65 66 -90 200 -273 463 -707 637 -1052 125 -250 342
-758 374 -878 1 -3 4 -12 8 -20 25 -62 128 -390 171 -545 43 -155 123 -502
132 -575 2 -19 6 -42 9 -50 4 -13 28 -145 40 -220 21 -134 49 -369 60 -495 3
-38 8 -83 10 -100 25 -168 25 -970 0 -1235 -1 -19 -6 -69 -9 -110 -6 -70 -20
-193 -32 -285 -2 -22 -7 -58 -10 -80 -2 -22 -9 -62 -14 -90 -5 -27 -11 -68
-14 -90 -3 -22 -12 -76 -20 -120 -9 -44 -18 -94 -21 -112 -3 -17 -16 -82 -30
-145 -197 -914 -557 -1790 -1053 -2563 -28 -44 -55 -85 -60 -91 -5 -5 -15 -21
-22 -35 -24 -45 -330 -466 -375 -515 -5 -6 -23 -29 -40 -50 -62 -79 -187 -226
-315 -369 -67 -76 -497 -502 -576 -571 -267 -236 -551 -455 -839 -651 -118
-80 -344 -223 -352 -223 -4 0 -14 -6 -22 -14 -62 -53 -652 -356 -891 -456 -41
-18 -90 -38 -107 -46 -60 -26 -98 -41 -133 -54 -19 -7 -48 -18 -65 -25 -39
-17 -330 -120 -375 -133 -19 -5 -93 -28 -165 -50 -206 -64 -481 -133 -725
-182 -88 -18 -113 -22 -195 -36 -16 -3 -37 -7 -45 -9 -8 -2 -35 -6 -60 -9 -25
-3 -54 -8 -66 -10 -12 -2 -45 -7 -74 -11 -29 -4 -60 -8 -69 -10 -9 -1 -47 -6
-84 -10 -37 -3 -76 -8 -86 -10 -9 -2 -57 -6 -107 -10 -49 -4 -100 -8 -114 -11
-158 -25 -1142 -25 -1280 1 -8 1 -51 6 -95 9 -44 4 -96 9 -115 11 -137 17
-296 37 -314 41 -11 2 -41 7 -66 10 -25 3 -54 8 -65 11 -11 2 -31 6 -45 8 -14
2 -61 10 -105 19 -44 8 -93 18 -110 21 -16 3 -48 9 -70 15 -22 5 -101 23 -175
40 -74 16 -151 34 -170 40 -19 5 -84 24 -145 40 -133 38 -448 137 -490 155
-16 7 -70 27 -120 45 -364 132 -766 320 -1170 550 -60 34 -129 75 -153 91 -24
16 -45 29 -48 29 -3 0 -32 18 -64 40 -32 22 -64 40 -69 40 -6 0 -11 5 -11 10
0 6 -5 10 -12 10 -6 0 -25 10 -42 23 -17 13 -83 59 -146 102 -168 115 -583
431 -610 465 -3 4 -41 37 -85 75 -279 240 -664 637 -918 948 -181 220 -537
715 -537 746 0 5 -4 11 -8 13 -12 5 -173 273 -270 449 -40 72 -242 475 -242
483 0 3 -13 33 -29 68 -80 170 -207 495 -276 708 -21 63 -41 124 -45 135 -28
77 -131 451 -146 534 -3 14 -7 28 -9 32 -3 4 -7 24 -10 45 -4 22 -10 53 -15
69 -8 27 -22 106 -21 120 0 2 -4 19 -10 37 -5 18 -16 75 -25 128 -9 52 -18
104 -20 115 -2 11 -7 40 -10 65 -3 25 -7 52 -9 60 -4 15 -9 54 -20 145 -3 28
-7 61 -10 75 -2 14 -7 52 -10 85 -3 33 -8 83 -11 110 -38 362 -38 1082 1 1440
2 28 7 77 10 110 3 33 7 74 9 90 10 79 17 129 31 230 127 901 451 1854 900
2655 118 209 124 221 156 268 16 24 29 45 29 47 0 6 191 295 261 395 76 109
247 334 331 435 9 11 44 54 78 95 174 210 444 492 681 711 653 602 1422 1101
2228 1445 317 136 792 300 1046 363 22 5 67 16 100 25 112 29 333 79 405 92
14 2 59 11 100 19 41 8 95 17 120 20 25 3 52 8 60 10 19 5 60 12 129 20 30 4
62 8 72 10 10 2 42 6 71 9 29 4 69 8 88 10 39 5 109 12 215 21 39 4 86 8 105
11 19 2 125 7 235 10 110 4 201 7 202 8 4 4 323 -2 488 -8z"/>
<path d="M8196 13274 c-83 -20 -172 -70 -236 -134 -64 -64 -100 -121 -131
-210 l-22 -65 -1 -2065 0 -2065 24 -74 c43 -134 133 -241 257 -306 270 -140
603 -6 710 285 l28 75 0 2080 c0 1726 -2 2087 -14 2120 -76 224 -252 363 -471
370 -49 2 -110 -3 -144 -11z"/>
<path d="M6775 12413 c-176 -16 -349 -143 -420 -308 -42 -98 -41 -74 -42
-1740 0 -879 4 -1617 8 -1639 38 -179 137 -309 290 -379 260 -118 561 -4 682
258 45 97 44 76 43 1781 l-2 1619 -26 68 c-55 136 -145 236 -266 292 -79 37
-183 55 -267 48z"/>
<path d="M9725 12409 c-217 -26 -403 -208 -434 -424 -7 -46 -10 -628 -8 -1670
l2 -1600 23 -65 c45 -127 144 -240 258 -296 286 -140 622 6 717 311 l21 70 0
1610 c0 886 -4 1630 -8 1655 -44 258 -299 442 -571 409z"/>
<path d="M11175 11359 c-196 -36 -360 -198 -406 -397 -7 -33 -11 -691 -11
-2147 0 -1155 -4 -2134 -9 -2175 -21 -184 -86 -395 -174 -571 -194 -387 -492
-674 -900 -870 -137 -66 -284 -118 -342 -121 -5 0 -18 -4 -29 -8 -58 -22 -317
-32 -443 -17 -234 28 -469 106 -710 234 -128 68 -289 176 -356 238 -143 132
-228 210 -248 227 -12 11 -65 59 -117 108 -52 49 -106 98 -120 110 -13 11 -52
47 -85 78 -34 31 -108 100 -165 152 -58 52 -114 104 -126 115 -21 21 -43 40
-229 210 -96 87 -189 173 -260 240 -19 17 -199 183 -229 210 -81 73 -253 231
-296 271 -30 28 -86 80 -125 115 -38 35 -90 83 -115 106 -70 64 -100 91 -200
183 -52 47 -122 112 -157 144 -35 32 -72 67 -83 76 -23 20 -213 195 -244 225
-100 96 -218 147 -346 149 -115 1 -161 -8 -246 -50 -136 -67 -244 -205 -275
-351 -25 -122 7 -290 74 -388 24 -35 122 -133 268 -265 57 -52 109 -99 115
-105 6 -5 57 -53 114 -105 57 -52 108 -99 114 -105 177 -161 260 -238 301
-276 28 -26 60 -56 71 -66 33 -28 201 -182 274 -250 36 -34 77 -72 90 -83 14
-12 68 -61 120 -110 52 -48 107 -98 121 -111 28 -25 199 -182 284 -261 64 -59
92 -84 205 -188 51 -47 103 -94 114 -105 12 -11 95 -87 186 -170 90 -82 171
-157 180 -165 9 -8 65 -60 125 -115 60 -55 136 -125 170 -156 33 -31 80 -73
105 -95 25 -21 47 -41 50 -44 21 -24 246 -191 332 -248 269 -177 582 -316 863
-383 99 -23 100 -23 165 -34 25 -4 53 -9 63 -11 134 -24 592 -24 687 1 8 2 33
6 55 10 457 67 974 303 1390 633 556 440 865 980 989 1723 5 33 14 114 22 194
7 88 7 4346 -1 4381 -45 192 -161 327 -340 393 -64 24 -188 34 -260 20z"/>
</g>
</svg>
